# xmcd
#
# Track frame offsets:
# 150
# 17022
# 29916
# 42601
# 55853
# 66035
# 77755
# 88464
# 98144
# 111801
# 121226
# 134857
# 146782
# 158921
# 169143
# 180971
# 201744
# 216833
# 228478
# 241596
# 251563
# 264795
# 276246
# 290180
# 302472
#
# Disc length: 4185 seconds
#
#
# Revision: 0
# Processed by: cddbd v1.5.2PL0 Copyright (c) Steve Scherf et al.
# Submitted via: FreeRIP 2.95 
#
DISCID=7c105719
DTITLE=Mariachi Vargas de Tecalitlan - El mejor mariachi del mundo
DYEAR=1900
DGENRE=Country
TTITLE0=Mariachi loco
TTITLE1=La culebra
TTITLE2=El mariachi
TTITLE3=La negra
TTITLE4=Las alazanas
TTITLE5=El zopilote mojado
TTITLE6=El maracumbe
TTITLE7=Camino real de colima
TTITLE8=Pompas ricas
TTITLE9=La chuchis
TTITLE10=El dos negro
TTITLE11=La bikina
TTITLE12=El gusto
TTITLE13=El tranche
TTITLE14=Las copetonas
TTITLE15=Los dos arrieros
TTITLE16=El triste
TTITLE17=El son del gavilancillo
TTITLE18=Atotonilco
TTITLE19=El carretero
TTITLE20=La norteña
TTITLE21=Jesusita de chihuahua
TTITLE22=Zacatecas
TTITLE23=Los machetes
TTITLE24=Guadalajara
EXTD=
EXTT0=
EXTT1=
EXTT2=
EXTT3=
EXTT4=
EXTT5=
EXTT6=
EXTT7=
EXTT8=
EXTT9=
EXTT10=
EXTT11=
EXTT12=
EXTT13=
EXTT14=
EXTT15=
EXTT16=
EXTT17=
EXTT18=
EXTT19=
EXTT20=
EXTT21=
EXTT22=
EXTT23=
EXTT24=
PLAYORDER=
